<?xml version="1.0" standalone="no"?>
<!DOCTYPE svg PUBLIC "-//W3C//DTD SVG 20010904//EN"
 "http://www.w3.org/TR/2001/REC-SVG-20010904/DTD/svg10.dtd">
<svg version="1.0" xmlns="http://www.w3.org/2000/svg"
 width="67.000000pt" height="67.000000pt" viewBox="0 0 67.000000 67.000000"
 preserveAspectRatio="xMidYMid meet">

<g transform="translate(0.000000,67.000000) scale(0.100000,-0.100000)"
fill="#000000" stroke="none">
<path d="M35 635 l-25 -24 0 -274 0 -274 25 -27 24 -26 276 0 276 0 24 25 25
24 0 275 0 274 -31 26 -31 26 -269 0 -270 0 -24 -25z m426 -115 c39 -21 11
-68 -79 -130 -21 -14 -31 -28 -28 -37 4 -8 9 -26 12 -39 6 -23 4 -24 -27 -22
-30 3 -34 0 -37 -24 -2 -17 4 -34 19 -49 18 -18 30 -21 70 -17 64 6 103 32 89
58 -15 28 -12 103 5 126 14 18 14 17 15 -16 0 -19 7 -46 14 -59 l13 -24 17 24
c10 15 16 44 16 78 0 76 22 53 28 -29 6 -78 -9 -112 -68 -155 -94 -69 -168
-82 -247 -44 -43 21 -93 86 -93 122 0 19 -22 22 -52 6 -38 -20 -33 3 10 41 23
21 42 43 42 49 0 16 -36 14 -71 -5 -17 -8 -33 -14 -35 -12 -2 2 7 20 21 40 24
36 77 68 112 68 10 0 23 4 29 10 42 42 176 66 225 40z"/>
</g>
</svg>
